<svg width="157" height="24" viewBox="0 0 157 24" fill="white" xmlns="http://www.w3.org/2000/svg" role="img">
  <path
    d="M35.1826 18.55C33.8983 18.55 32.7353 18.26 31.724 17.7C30.7127 17.13 29.9037 16.35 29.3374 15.36C28.7609 14.38 28.4778 13.25 28.4778 12.02C28.4778 10.79 28.7711 9.58995 29.3576 8.59995C29.9441 7.60995 30.7431 6.82995 31.7442 6.27995C32.7454 5.72995 33.8679 5.44995 35.0916 5.44995C36.1332 5.44995 37.0838 5.62995 37.9232 5.96995C38.7423 6.30995 39.4907 6.83995 40.148 7.53995L38.712 9.29995C38.2367 8.78995 37.7007 8.39995 37.1344 8.12995C36.5478 7.84995 35.8804 7.70995 35.1523 7.70995C34.323 7.70995 33.5645 7.89995 32.9173 8.25995C32.26 8.62995 31.7442 9.13995 31.3802 9.78995C31.0161 10.44 30.8341 11.18 30.8341 11.99C30.8341 12.8 31.0161 13.58 31.3802 14.23C31.7442 14.89 32.26 15.41 32.9274 15.77C33.5848 16.14 34.3533 16.32 35.2231 16.32C36.2242 16.32 37.0737 16.09 37.7411 15.64C38.4187 15.18 38.8434 14.53 39.0154 13.71L39.0356 13.63H35.1624V11.61H41.4728V12.38C41.4728 13.61 41.1997 14.7 40.6739 15.63C40.148 16.55 39.3997 17.27 38.449 17.77C37.4984 18.27 36.4063 18.53 35.1826 18.53V18.55Z" />
  <path
    d="M50.8474 18.29L49.9979 16.33H44.7089L43.8594 18.29H41.2806L47.2978 5.44995H47.409L53.4262 18.29H50.8474ZM45.4977 14.43H49.2192L47.3483 10.17L45.4977 14.43Z" />
  <path d="M54.8419 18.29V5.70996H57.2083V16.03H61.9614V18.29H54.8419Z" />
  <path
    d="M72.499 18.29L71.6495 16.33H66.3605L65.511 18.29H62.9323L68.9494 5.44995H69.0606L75.0778 18.29H72.499ZM67.1493 14.43H70.8708L69 10.17L67.1493 14.43Z" />
  <path
    d="M81.7725 18.55C80.5286 18.55 79.3858 18.26 78.3847 17.69C77.3835 17.12 76.5846 16.33 76.0082 15.34C75.4317 14.35 75.1486 13.23 75.1486 12.01C75.1486 10.79 75.4418 9.66997 76.0082 8.67997C76.5846 7.68997 77.3835 6.89997 78.3847 6.32997C79.3858 5.75997 80.5286 5.46997 81.7725 5.46997C82.7838 5.46997 83.7445 5.67997 84.6445 6.09997V8.77997C84.2906 8.48997 83.8658 8.24997 83.4108 8.05997C82.895 7.84997 82.3489 7.74997 81.7725 7.74997C80.9634 7.74997 80.2353 7.93997 79.5881 8.30997C78.9409 8.67997 78.4352 9.19997 78.0611 9.83997C77.697 10.48 77.515 11.21 77.515 12.01C77.515 12.81 77.697 13.54 78.0611 14.18C78.4251 14.82 78.9409 15.34 79.5881 15.71C80.2353 16.08 80.9634 16.27 81.7725 16.27C82.3388 16.27 82.895 16.16 83.4108 15.96C83.8759 15.77 84.2906 15.53 84.6445 15.24V17.92C83.7546 18.34 82.7838 18.55 81.7725 18.55Z" />
  <path
    d="M92.5326 18.55C91.2887 18.55 90.1459 18.26 89.1448 17.69C88.1436 17.12 87.3346 16.32 86.7581 15.33C86.1817 14.34 85.8884 13.22 85.8884 12.01C85.8884 10.8 86.1817 9.68997 86.7682 8.68997C87.3548 7.68997 88.1638 6.89997 89.165 6.32997C90.1763 5.75997 91.3089 5.46997 92.5427 5.46997C93.7764 5.46997 94.9091 5.75997 95.9305 6.32997C96.9418 6.89997 97.7508 7.69997 98.3373 8.68997C98.9239 9.68997 99.2172 10.8 99.2172 12.01C99.2172 13.22 98.9239 14.33 98.3475 15.32C97.771 16.31 96.962 17.11 95.9507 17.68C94.9394 18.26 93.7967 18.55 92.5528 18.55H92.5326ZM92.5326 7.72997C91.7235 7.72997 90.9853 7.91997 90.3381 8.27997C89.6909 8.64997 89.165 9.15997 88.8009 9.80997C88.4267 10.46 88.2447 11.19 88.2447 11.99C88.2447 12.79 88.4369 13.52 88.8009 14.16C89.1751 14.8 89.6909 15.32 90.3381 15.69C90.9853 16.06 91.7235 16.25 92.5326 16.25C93.3416 16.25 94.0899 16.06 94.7473 15.69C95.3945 15.32 95.9103 14.8 96.2844 14.15C96.6485 13.5 96.8305 12.77 96.8305 11.99C96.8305 11.21 96.6384 10.48 96.2743 9.82997C95.9001 9.17997 95.3844 8.65997 94.7372 8.28997C94.0899 7.91997 93.3517 7.72997 92.5427 7.72997H92.5326Z" />
  <path d="M112.425 18.55L103.586 10.43V18.29H101.219V5.44995H101.29L110.119 13.58V5.70995H112.495V18.55H112.425Z" />
  <path d="M126.046 18.55L117.198 10.43V18.29H114.841V5.44995H114.912L123.731 13.58V5.70995H126.117V18.55H126.046Z" />
  <path d="M128.464 18.29V5.70996H135.947V7.83996H130.82V10.89H135.482V13.02H130.82V16.14H136.038V18.29H128.464Z" />
  <path
    d="M143.987 18.55C142.743 18.55 141.6 18.26 140.599 17.69C139.598 17.12 138.799 16.33 138.222 15.34C137.646 14.35 137.363 13.23 137.363 12.01C137.363 10.79 137.656 9.66997 138.222 8.67997C138.799 7.68997 139.598 6.89997 140.599 6.32997C141.6 5.75997 142.743 5.46997 143.987 5.46997C144.998 5.46997 145.959 5.67997 146.859 6.09997V8.77997C146.505 8.48997 146.08 8.24997 145.625 8.05997C145.109 7.84997 144.563 7.74997 143.987 7.74997C143.178 7.74997 142.45 7.93997 141.802 8.30997C141.155 8.67997 140.649 9.19997 140.275 9.83997C139.911 10.48 139.729 11.21 139.729 12.01C139.729 12.81 139.911 13.54 140.275 14.18C140.639 14.82 141.155 15.34 141.802 15.71C142.45 16.08 143.178 16.27 143.987 16.27C144.553 16.27 145.109 16.16 145.625 15.96C146.09 15.77 146.505 15.53 146.859 15.24V17.92C145.969 18.34 144.998 18.55 143.987 18.55Z" />
  <path d="M151.187 18.29V7.96996H148.062V5.70996H156.668V7.96996H153.564V18.29H151.187Z" />
  <path d="M5.87556 12.53L7.97903 13.73V20.53L2.02257 17.13V8.02L0 6.87V18.29L10.0016 24V12.58L5.87556 10.22V12.53Z" />
  <path
    d="M11.3466 12.58V17.3L13.3691 16.15V13.74L19.3256 10.34V17.14L11.3466 21.69V24L21.3482 18.29V6.87L11.3466 12.58Z" />
  <path
    d="M12.7827 7.91L10.6792 9.11L4.72275 5.71L10.6792 2.31L18.6582 6.86L20.6808 5.71L10.6792 0L0.677612 5.71L10.6792 11.42L14.8053 9.06L12.7827 7.91Z" />
</svg>