<svg xmlns="http://www.w3.org/2000/svg" xmlns:xlink="http://www.w3.org/1999/xlink" aria-hidden="true" role="img"
	viewBox="0 0 32 32" width="31.88" height="32">
	<circle fill="#ffffff" class="st0" cx="16" cy="16" r="16" />
	<g>
		<path d="M16,4L6,9.4l10,5.8l3.8-2.2l-1.6-0.9L16,13.4L9.3,9.5L16,5.8l0.7,0.4l7.7,4.2l1.6-0.9L16,4z" />
		<path d="M11.6,13.9v1.9l2.3,1.3v8.1l-6.9-4.3v-9.7l-1.6-0.9v11.5L15.5,28V16.1L11.6,13.9L11.6,13.9z" />
		<path d="M25.4,10.9l-8.9,5.2v4.5l1.6-0.9v-2.7l6.9-4v7.8l-6.9,4.3l-1.6,1V28l10.2-6.3V10.2L25.4,10.9z" />
	</g>
</svg>